<?xml version="1.0" standalone="no"?>
<!DOCTYPE svg PUBLIC "-//W3C//DTD SVG 20010904//EN"
 "http://www.w3.org/TR/2001/REC-SVG-20010904/DTD/svg10.dtd">
<svg version="1.0" xmlns="http://www.w3.org/2000/svg"
 width="600.000000pt" height="600.000000pt" viewBox="0 0 600.000000 600.000000"
 preserveAspectRatio="xMidYMid meet">

<g transform="translate(0.000000,600.000000) scale(0.100000,-0.100000)"
fill="#ff0000" stroke="none">
<path d="M0 3000 l0 -3000 3000 0 3000 0 0 3000 0 3000 -3000 0 -3000 0 0
-3000z m3167 1050 c69 -42 63 -151 -10 -186 -75 -36 -157 16 -157 98 0 32 7
47 34 74 40 40 83 45 133 14z m105 -299 c257 -66 453 -271 504 -528 16 -77 16
-84 0 -108 l-16 -25 -647 0 c-722 0 -683 -4 -683 69 0 56 37 178 78 256 44 83
169 213 253 263 59 35 149 69 214 82 77 15 218 11 297 -9z m-1076 -514 c33
-39 31 -81 -5 -118 l-29 -29 -202 0 -202 0 -29 29 c-45 46 -33 117 25 141 11
5 110 8 219 7 l199 -2 24 -28z m-824 -288 c26 -7 43 -19 53 -39 21 -41 19 -64
-11 -99 l-26 -31 -109 0 c-103 0 -111 1 -134 25 -44 43 -30 115 28 140 38 17
147 19 199 4z m713 -3 c59 -25 75 -97 30 -141 l-24 -25 -239 0 c-225 0 -239 1
-260 20 -48 45 -39 114 18 142 30 15 65 18 238 18 152 0 211 -4 237 -14z
m1777 -25 c24 -27 29 -39 24 -65 -3 -17 -17 -41 -32 -53 l-25 -23 -725 0 -725
0 -24 25 c-47 46 -26 125 38 144 19 6 320 9 735 8 l704 -2 30 -34z m-877 -276
c49 -48 39 -71 -116 -285 -77 -107 -151 -207 -165 -222 l-26 -28 -142 0 -143
0 -73 -111 c-88 -132 -121 -163 -164 -155 -17 3 -41 17 -53 32 -40 45 -31 74
68 223 135 201 112 185 284 189 l145 4 117 161 c152 212 157 217 205 217 28 0
46 -7 63 -25z m373 -8 c11 -12 91 -146 177 -297 86 -151 158 -276 160 -278 2
-2 45 20 97 48 118 66 144 71 186 35 40 -33 43 -81 10 -119 -31 -34 -296 -176
-330 -176 -15 0 -38 10 -51 23 -41 37 -397 672 -397 707 0 70 99 109 148 57z
m-1363 -22 c33 -32 33 -84 1 -122 -24 -27 -27 -28 -145 -32 -67 -2 -138 0
-157 4 -80 14 -111 95 -58 149 27 26 28 26 181 26 150 0 155 -1 178 -25z"/>
</g>
</svg>
